# xmcd
# 
# Track frame offsets:
#     183
#     22638
#     55243
# 
# Disc length: 964
# 
# Revision: 0
# Processed by: cddbd v1.5.2PL0 Copyright (c) Steve Scherf et al.
# Submitted via: fre:ac v1.0.31
# 
DISCID=1603c203
DTITLE=Beats O Matic - Motorcity-Mix
DYEAR=0
DGENRE=
TTITLE0=Motorcity-Mix [7" Mix]
TTITLE1=Motorcity-Mix [12" Mix]
TTITLE2=Break It Down
EXTD=
EXTT0=
EXTT1=
EXTT2=
PLAYORDER=
